# xmcd CD database file
#
# Track frame offsets:
#	150
#	35830
#	64974
#	95872
#	143423
#	171694
#
# Disc length: 2761 seconds
#
# Revision: 0
# Processed by: cddbd v1.5.2PL0 Copyright (c) Steve Scherf et al.
# Submitted via: CDex 1.51
#
DISCID=5c0ac706
DTITLE=Malik Yaqub - Bebop Clandestino
DYEAR=1900
DGENRE=Jazz
TTITLE0=Caravan
TTITLE1=Turista Came Back
TTITLE2=Mohawk
TTITLE3=Besame Mucho
TTITLE4=Secrets of the Pyramids
TTITLE5=Little Melonie
EXTD=
EXTT0=
EXTT1=
EXTT2=
EXTT3=
EXTT4=
EXTT5=
PLAYORDER=
